<?xml version="1.0" standalone="no"?>
<!DOCTYPE svg PUBLIC "-//W3C//DTD SVG 20010904//EN"
 "http://www.w3.org/TR/2001/REC-SVG-20010904/DTD/svg10.dtd">
<svg version="1.0" xmlns="http://www.w3.org/2000/svg"
 width="1024.000000pt" height="1024.000000pt" viewBox="0 0 1024.000000 1024.000000"
 preserveAspectRatio="xMidYMid meet">

<g transform="translate(0.000000,1024.000000) scale(0.100000,-0.100000)"
fill="#000000" stroke="none">
<path d="M5060 9300 c-69 -28 -134 -55 -145 -60 -51 -25 -531 -198 -800 -288
-938 -315 -1830 -535 -2819 -696 -98 -16 -139 -42 -150 -97 -13 -67 35 -957
64 -1179 6 -41 19 -151 30 -245 93 -780 309 -1670 578 -2386 36 -95 41 -119
44 -210 l3 -103 -61 -17 c-78 -21 -103 -35 -113 -62 -5 -13 -1 -152 9 -329 21
-376 19 -370 150 -436 194 -98 521 -171 995 -222 314 -34 375 -39 590 -50 116
-5 296 -15 400 -20 106 -6 757 -11 1465 -13 1121 -1 1306 1 1535 16 479 32
680 47 735 57 30 4 82 11 115 15 281 28 572 88 795 161 120 40 224 123 234
186 5 33 23 294 33 500 8 161 6 165 -111 197 l-61 16 -3 95 -3 95 64 170 c380
1008 598 2167 648 3447 13 331 11 353 -37 384 -12 9 -139 35 -281 60 -142 25
-281 49 -309 54 -81 14 -291 57 -514 106 -942 207 -1799 471 -2739 843 -85 34
-168 61 -185 61 -17 0 -87 -23 -156 -50z m363 -126 c359 -141 746 -280 1067
-383 254 -81 442 -139 490 -151 25 -6 80 -22 122 -35 83 -26 345 -96 468 -126
41 -10 102 -25 135 -33 116 -30 321 -78 460 -108 399 -84 448 -94 833 -158
l192 -33 0 -96 c0 -146 -19 -563 -30 -676 -6 -55 -17 -183 -26 -285 -8 -102
-19 -214 -25 -250 -5 -36 -18 -132 -29 -215 -47 -372 -174 -1042 -209 -1105
-5 -9 -12 -31 -16 -50 -16 -77 -127 -474 -169 -605 -25 -77 -46 -144 -46 -148
0 -7 -31 -91 -56 -152 -6 -14 -10 -1 -15 50 -19 188 -48 372 -79 495 -28 110
-28 129 13 295 19 77 42 174 51 215 9 41 26 115 37 164 11 49 28 141 39 205
10 64 23 139 29 166 6 28 18 102 26 165 9 63 22 160 30 215 8 55 19 156 25
225 6 69 15 148 20 175 17 93 52 886 40 905 -7 9 -86 27 -185 40 -44 6 -111
17 -150 25 -38 8 -144 29 -235 45 -168 31 -401 80 -500 105 -30 7 -82 19 -115
25 -33 6 -78 17 -100 24 -22 8 -67 19 -100 26 -33 6 -78 18 -100 25 -22 7 -62
18 -90 24 -27 7 -72 18 -100 26 -27 8 -99 28 -160 45 -212 60 -251 71 -380
112 -114 35 -422 137 -660 218 -92 31 -312 115 -529 201 -82 32 -158 59 -170
59 -12 0 -89 -27 -171 -61 -333 -135 -803 -301 -1175 -416 -164 -50 -515 -152
-580 -168 -30 -7 -125 -31 -210 -53 -201 -51 -384 -95 -540 -127 -69 -14 -142
-30 -162 -36 -35 -9 -118 -25 -418 -79 -58 -11 -156 -27 -218 -37 -102 -16
-113 -20 -118 -40 -4 -12 -1 -109 5 -215 6 -106 16 -278 21 -383 32 -574 130
-1221 275 -1807 l46 -186 -26 -104 c-34 -144 -73 -381 -81 -494 -4 -58 -11
-93 -17 -91 -22 7 -185 529 -266 852 -76 298 -122 502 -171 758 -97 503 -180
1356 -180 1849 l0 156 43 7 c23 4 128 22 232 41 105 18 233 40 285 49 107 17
360 69 555 115 72 16 180 41 242 55 570 130 1287 343 1948 580 88 31 179 63
202 70 61 20 213 78 338 129 61 25 118 46 128 46 11 0 105 -34 210 -76z m-277
-1229 c0 -27 5 -262 9 -522 l8 -471 -59 -7 c-291 -32 -560 -178 -745 -405 -76
-93 -176 -281 -205 -385 -99 -359 -29 -728 190 -1008 132 -170 290 -286 483
-357 125 -45 188 -58 334 -70 115 -9 152 -8 230 5 304 51 564 214 737 460 56
79 112 181 112 202 0 7 6 24 14 36 8 12 27 67 42 122 26 93 28 113 29 290 0
177 -2 197 -28 290 -102 366 -375 659 -722 774 -49 16 -112 32 -140 36 -27 3
-74 11 -104 17 l-53 12 8 440 c5 243 9 474 9 514 0 66 2 72 21 72 11 0 88 -21
170 -46 272 -83 373 -114 761 -231 l51 -15 11 -62 c6 -33 15 -104 21 -156 6
-52 15 -117 21 -145 5 -27 18 -113 29 -190 10 -77 31 -214 45 -305 14 -91 37
-235 50 -320 45 -292 74 -466 79 -481 3 -7 17 -95 31 -194 14 -99 33 -213 41
-252 19 -89 40 -99 31 -15 -4 31 -16 174 -27 317 -11 143 -25 294 -30 335 -5
41 -17 154 -25 250 -25 265 -32 339 -55 535 -30 250 -42 367 -37 371 4 4 149
-57 157 -67 3 -3 27 -16 55 -28 27 -13 69 -36 92 -52 23 -16 45 -29 48 -29 4
0 19 -9 34 -20 l28 -19 7 -293 c4 -161 11 -342 16 -403 5 -60 14 -200 20 -310
11 -209 16 -255 29 -255 9 0 22 101 27 200 1 36 7 130 13 210 6 80 13 282 16
450 6 357 14 510 25 510 5 0 10 -3 12 -8 3 -8 257 -238 448 -407 69 -60 140
-123 158 -139 31 -28 32 -32 32 -105 0 -42 4 -155 10 -251 5 -96 17 -317 25
-490 15 -289 25 -372 39 -309 3 13 11 105 17 204 6 99 16 265 22 369 l12 189
70 -103 c306 -452 456 -819 549 -1350 35 -203 46 -341 46 -592 0 -201 -1 -218
-17 -218 -28 0 -141 19 -213 35 -68 15 -177 35 -220 40 -14 1 -54 7 -90 13
-81 13 -233 34 -280 38 -19 2 -69 8 -110 14 -230 32 -293 39 -301 34 -19 -12
-21 31 -6 149 56 424 69 513 78 522 6 6 31 2 72 -12 47 -17 518 -168 584 -188
13 -4 28 -37 117 -245 34 -80 67 -154 73 -165 11 -18 12 -18 12 10 1 27 -15
144 -53 407 -6 47 -18 93 -25 102 -14 16 -47 29 -186 71 -49 15 -106 33 -125
40 -31 12 -240 79 -503 160 -48 15 -90 25 -93 22 -6 -5 -23 -123 -49 -342 -8
-66 -22 -167 -30 -225 -9 -58 -22 -143 -28 -190 l-12 -85 -40 -3 c-22 -2 -98
3 -170 12 -569 68 -1981 79 -2925 22 -286 -18 -349 -23 -488 -38 -65 -8 -106
-8 -112 -2 -5 5 -16 59 -24 119 -8 61 -28 214 -45 340 -17 127 -35 262 -41
300 -5 39 -9 74 -10 78 0 11 -46 1 -150 -33 -47 -15 -114 -37 -150 -48 -264
-82 -600 -195 -605 -203 -11 -17 -78 -489 -71 -497 6 -6 38 63 93 198 19 47
46 111 60 142 l25 57 232 75 c341 110 435 138 445 132 10 -6 10 -10 35 -221 9
-77 24 -196 33 -265 9 -69 16 -141 17 -160 l1 -35 -55 -7 c-622 -78 -789 -103
-1127 -169 -35 -7 -66 -9 -70 -5 -11 11 -6 438 6 571 34 349 118 687 249 1000
34 82 187 370 246 465 66 105 160 239 169 240 4 0 7 -15 7 -32 0 -37 28 -495
38 -635 15 -200 24 -117 47 437 8 190 15 394 15 453 0 74 5 117 14 136 8 15
56 63 108 106 51 43 131 114 178 156 326 294 365 328 375 318 6 -6 11 -84 12
-187 4 -298 23 -802 33 -892 6 -47 13 -125 16 -175 8 -120 19 -86 28 85 4 74
13 234 21 355 8 121 17 332 21 468 l7 248 61 36 c80 48 345 183 358 183 11 0
8 -56 -15 -255 -25 -207 -52 -474 -101 -975 -8 -85 -20 -231 -26 -325 -6 -93
-16 -189 -21 -213 -5 -24 -6 -48 -2 -55 9 -15 14 8 62 293 36 211 46 279 81
510 6 36 21 135 35 220 13 85 31 202 39 260 9 58 29 197 46 310 17 113 40 270
51 350 26 198 22 185 71 199 40 11 86 25 318 97 197 60 510 154 561 168 85 23
93 20 95 -39z m224 -1279 c0 -52 4 -97 8 -100 5 -3 27 -8 49 -12 39 -6 40 -5
69 42 16 27 34 61 40 75 7 15 16 29 21 32 4 3 33 -10 64 -28 31 -18 83 -48
115 -65 33 -18 62 -35 66 -39 4 -3 -13 -41 -38 -84 -24 -44 -44 -82 -44 -86 0
-4 16 -22 35 -41 l34 -33 38 25 c77 51 125 71 134 56 22 -33 129 -225 129
-231 0 -4 -34 -25 -75 -48 -79 -43 -85 -54 -69 -116 6 -21 13 -22 103 -25 l96
-3 3 -142 3 -143 -68 -1 c-38 -1 -80 0 -95 1 -31 2 -48 -27 -48 -80 0 -25 8
-34 63 -64 34 -20 68 -40 75 -45 11 -7 2 -31 -44 -113 -76 -140 -80 -145 -102
-132 -53 33 -133 74 -143 74 -7 0 -23 -10 -36 -22 l-24 -22 -510 509 c-280
281 -515 518 -520 528 -8 15 -6 24 10 41 12 12 21 26 21 30 0 5 -20 42 -45 83
-25 40 -45 75 -45 77 0 2 37 25 83 51 45 26 101 58 123 72 l42 24 47 -82 47
-81 40 6 c23 4 45 9 50 12 4 3 8 48 8 100 l0 94 145 0 145 0 0 -94z m-545
-566 c173 -173 315 -319 315 -324 0 -13 -562 -576 -575 -576 -15 0 -115 134
-158 210 -47 85 -95 235 -105 324 -10 93 1 264 23 346 9 36 32 99 51 140 37
81 114 202 126 198 4 -2 150 -145 323 -318z m685 -685 c157 -157 286 -290 288
-297 3 -16 -110 -91 -194 -129 -121 -55 -214 -73 -379 -74 -167 0 -249 16
-380 75 -58 26 -205 115 -205 124 0 6 576 586 581 586 3 0 133 -128 289 -285z
m478 -1170 c518 -21 1159 -67 1237 -90 11 -3 79 -12 150 -20 174 -19 434 -51
520 -65 39 -7 122 -20 185 -30 214 -33 365 -60 395 -69 17 -5 67 -17 112 -27
l83 -18 -5 -80 c-3 -45 -8 -129 -11 -188 -3 -60 -8 -108 -10 -108 -2 0 -52 25
-111 56 -356 184 -808 291 -1109 263 -121 -12 -153 -19 -264 -64 -113 -45
-192 -95 -320 -205 -193 -166 -371 -244 -650 -285 -246 -37 -388 -45 -870 -51
-250 -3 -484 -5 -520 -4 -97 1 -540 40 -575 50 -16 4 -61 14 -100 20 -38 6
-115 27 -169 47 -150 54 -246 110 -376 223 -137 119 -198 157 -325 205 -146
55 -295 73 -465 56 -231 -24 -383 -59 -615 -142 -60 -22 -173 -71 -249 -110
-76 -38 -140 -68 -142 -66 -4 3 -24 307 -24 358 0 22 7 27 53 41 28 9 88 24
132 32 44 9 100 21 125 26 25 5 90 17 145 25 55 8 123 19 150 24 28 5 104 16
170 25 66 9 147 21 180 26 250 43 1195 135 1515 148 384 15 1335 13 1758 -3z
m-3323 -526 c-16 -6 -84 -23 -149 -40 -303 -75 -469 -158 -516 -255 -14 -27
-20 -54 -16 -68 18 -71 132 -139 296 -176 139 -32 151 -41 45 -36 -163 9 -313
66 -367 140 -22 30 -28 50 -28 88 0 141 141 242 433 313 99 24 226 42 297 43
l35 0 -30 -9z m5295 -19 c218 -37 404 -112 479 -191 79 -83 80 -180 4 -250
-26 -24 -45 -34 -125 -67 -45 -18 -148 -40 -218 -46 -63 -6 -62 -5 45 23 126
33 171 51 236 92 131 83 85 215 -108 306 -121 56 -165 72 -327 113 -178 45
-173 52 14 20z"/>
<path d="M5137 6714 c-4 -4 -7 -47 -7 -95 0 -88 0 -89 -27 -95 -16 -3 -52 -12
-81 -20 -41 -12 -57 -12 -68 -3 -8 6 -14 16 -14 21 0 5 -16 34 -35 64 l-35 54
-58 -29 c-31 -16 -68 -38 -81 -49 l-25 -19 43 -73 c35 -59 42 -76 32 -89 -26
-36 -23 -43 45 -112 38 -38 75 -69 82 -69 7 0 28 11 46 25 17 13 59 37 92 52
54 25 69 27 179 27 109 0 125 -2 179 -27 172 -80 273 -219 292 -402 10 -100
-27 -230 -90 -314 -31 -41 -29 -45 58 -130 l66 -65 24 23 24 22 66 -40 c36
-23 73 -41 82 -41 8 0 23 14 32 31 9 17 27 47 40 66 29 45 28 67 -5 82 -16 7
-49 26 -74 42 l-47 30 19 62 c10 34 19 70 19 79 0 15 13 18 93 20 l92 3 3 93
3 92 -83 0 c-46 0 -88 4 -93 8 -6 4 -18 37 -28 74 -9 37 -20 74 -23 82 -3 9
-2 16 4 16 20 0 142 75 142 88 0 20 -79 152 -91 152 -5 0 -42 -18 -81 -40
l-71 -41 -59 58 c-32 31 -58 61 -58 66 0 5 18 39 41 77 22 38 38 73 35 79 -3
5 -39 28 -78 51 l-73 42 -22 -29 c-13 -15 -23 -31 -23 -35 0 -10 -53 -88 -60
-88 -3 0 -29 6 -56 14 -27 8 -60 16 -74 18 -24 3 -25 6 -30 98 l-5 94 -86 3
c-47 2 -88 0 -92 -3z"/>
<path d="M5079 6237 c-69 -28 -129 -65 -129 -80 0 -7 133 -145 295 -307 l296
-295 20 25 c69 86 99 201 82 316 -21 148 -106 263 -241 327 -60 28 -78 32
-167 34 -84 2 -109 -1 -156 -20z"/>
<path d="M4466 6258 c-79 -144 -113 -300 -103 -472 7 -114 31 -206 84 -310 33
-68 111 -186 121 -186 14 0 482 476 480 488 -3 14 -528 542 -539 542 -5 0 -24
-28 -43 -62z"/>
<path d="M5158 5545 c-13 -17 -18 -43 -18 -90 l0 -66 -32 3 c-25 2 -33 8 -34
23 -1 11 -2 24 -3 29 -1 5 -12 -1 -26 -14 l-25 -24 2 -205 c3 -204 3 -206 25
-209 22 -3 23 -3 25 165 l3 168 33 3 32 3 0 -174 c0 -165 1 -175 19 -180 11
-3 22 -2 25 1 9 8 7 592 -1 592 -5 0 -16 -11 -25 -25z"/>
<path d="M5260 5277 c0 -162 3 -296 6 -299 3 -3 14 -4 25 -1 18 5 19 16 19
282 0 265 -1 277 -20 294 -11 9 -22 17 -25 17 -3 0 -5 -132 -5 -293z"/>
<path d="M5380 5221 l0 -232 22 3 c17 2 24 11 28 33 4 24 11 31 33 33 22 3 30
-1 34 -18 4 -13 11 -19 20 -16 8 3 19 6 24 6 5 0 9 58 9 130 0 121 -1 131 -22
150 l-23 21 -3 -83 c-3 -118 -6 -128 -42 -128 l-30 0 0 143 c0 140 -1 144 -25
167 l-25 23 0 -232z"/>
<path d="M4923 5310 c-21 -22 -23 -33 -23 -151 0 -122 1 -127 22 -132 12 -4
24 -5 25 -3 2 2 2 72 1 157 l-3 154 -22 -25z"/>
<path d="M4777 5165 c-40 -46 -40 -48 20 -79 31 -15 32 -15 35 7 5 33 -3 117
-10 116 -4 0 -24 -20 -45 -44z"/>
<path d="M5620 5140 c0 -38 2 -70 5 -70 3 0 24 12 46 26 l40 25 -38 44 c-21
24 -41 44 -45 44 -5 1 -8 -30 -8 -69z"/>
<path d="M7823 2953 c-24 -3 -40 -14 -60 -44 -16 -22 -49 -69 -75 -105 -27
-36 -48 -67 -48 -69 0 -3 -6 -13 -14 -22 -8 -10 -52 -65 -98 -123 -210 -267
-455 -526 -698 -739 -181 -159 -236 -202 -430 -340 -293 -207 -655 -407 -1005
-555 -185 -78 -177 -78 -336 -15 -260 103 -686 330 -944 502 -488 327 -998
825 -1339 1308 -130 184 -132 186 -173 192 -90 15 -90 17 -1 -110 638 -919
1427 -1566 2405 -1974 201 -84 207 -85 384 -14 172 68 496 225 669 325 529
306 1028 727 1435 1215 123 147 395 517 411 560 6 16 -9 17 -83 8z"/>
<path d="M7205 2879 c-298 -33 -835 -56 -1655 -69 -771 -13 -1512 2 -2025 40
-71 6 -197 15 -278 21 -81 6 -150 9 -153 6 -5 -5 133 -187 155 -207 3 -3 39
-43 80 -90 381 -437 943 -867 1441 -1101 232 -109 285 -133 335 -149 22 -7 53
-19 69 -27 27 -14 36 -12 175 43 80 32 229 100 331 150 543 271 991 613 1405
1074 110 122 255 300 255 313 0 8 -38 7 -135 -4z"/>
</g>
</svg>
